<svg width="27" height="27" viewBox="0 0 27 27" fill="none" xmlns="http://www.w3.org/2000/svg">
<g clip-path="url(#clip0_15_27)">
<path fill-rule="evenodd" clip-rule="evenodd" d="M18.9 13.5C18.9 14.2097 18.2952 14.7857 17.55 14.7857H14.85V17.3571C14.85 18.0669 14.2452 18.6429 13.5 18.6429C12.7548 18.6429 12.15 18.0669 12.15 17.3571V14.7857H9.45001C8.70481 14.7857 8.1 14.2097 8.1 13.5C8.1 12.7903 8.70481 12.2143 9.45001 12.2143H12.15V9.64285C12.15 8.93314 12.7548 8.35714 13.5 8.35714C14.2452 8.35714 14.85 8.93314 14.85 9.64285V12.2143H17.55C18.2952 12.2143 18.9 12.7903 18.9 13.5ZM13.5 23.7857C7.54515 23.7857 2.7 19.1713 2.7 13.5C2.7 7.82871 7.54515 3.21428 13.5 3.21428C19.4548 3.21428 24.3 7.82871 24.3 13.5C24.3 19.1713 19.4548 23.7857 13.5 23.7857ZM13.5 0.642853C6.04395 0.642853 0 6.399 0 13.5C0 20.601 6.04395 26.3571 13.5 26.3571C20.956 26.3571 27 20.601 27 13.5C27 6.399 20.956 0.642853 13.5 0.642853Z" fill="white"/>
</g>
<defs>
<clipPath id="clip0_15_27">
<rect width="27" height="27" fill="white"/>
</clipPath>
</defs>
</svg>
