<svg width="115" height="102" viewBox="0 0 115 102" fill="none" xmlns="http://www.w3.org/2000/svg">
<circle cx="40" cy="40" r="36.5" stroke="#C9C9C9" stroke-width="7"/>
<path d="M100.378 100.028C104.259 103.133 109.923 102.504 113.028 98.6223C116.133 94.7409 115.504 89.0773 111.622 85.9722L100.378 100.028ZM60.3777 68.0278L100.378 100.028L111.622 85.9722L71.6223 53.9722L60.3777 68.0278Z" fill="#C9C9C9"/>
<path d="M40.4049 48.7085L40.1505 48.298C39.2855 46.8844 38.7144 45.6843 38.4371 44.6975C38.1678 43.7057 38.1109 42.8051 38.2666 41.9956C38.4222 41.1862 38.7043 40.3651 39.113 39.5325C39.4125 38.9012 39.6522 38.2903 39.8321 37.6998C40.012 37.1092 40.089 36.5323 40.063 35.9691C40.032 35.3978 39.8544 34.8506 39.5302 34.3274C39.186 33.772 38.7513 33.3674 38.2263 33.1134C37.7013 32.8595 37.1435 32.7595 36.5531 32.8135C35.9707 32.8625 35.4099 33.0541 34.8706 33.3883C34.3474 33.7126 33.9247 34.1361 33.6025 34.6589C33.2753 35.1736 33.1025 35.7486 33.0841 36.3839C33.0606 37.0112 33.2414 37.6624 33.6263 38.3374L28.7002 41.3904C27.7427 39.7556 27.306 38.188 27.3899 36.6877C27.4689 35.1793 27.9524 33.7934 28.8405 32.5299C29.7236 31.2584 30.8937 30.1712 32.3505 29.2683C33.9523 28.2756 35.5336 27.6632 37.0944 27.4312C38.6502 27.1911 40.0875 27.3531 41.4063 27.9172C42.7252 28.4813 43.8211 29.4677 44.6941 30.8763C45.2778 31.818 45.6397 32.7524 45.7797 33.6794C45.9228 34.5934 45.8913 35.5043 45.6851 36.4119C45.4739 37.3115 45.1297 38.2212 44.6524 39.1408C44.251 39.9133 43.9723 40.6319 43.8162 41.2969C43.6681 41.9568 43.6606 42.6188 43.7936 43.2828C43.9347 43.9418 44.2456 44.6682 44.7264 45.462L44.9809 45.8725L40.4049 48.7085ZM47.5846 54.9541C46.7796 55.453 45.9168 55.5978 44.9962 55.3885C44.0785 55.1662 43.3768 54.6542 42.891 53.8523C42.394 53.0685 42.2527 52.2203 42.4669 51.3076C42.6892 50.39 43.2028 49.6817 44.0077 49.1829C44.7724 48.709 45.6191 48.5741 46.5479 48.7784C47.4766 48.9827 48.1894 49.4767 48.6864 50.2605C49.0076 50.7968 49.1685 51.371 49.1692 51.9834C49.173 52.5826 49.0398 53.1498 48.7698 53.6848C48.4948 54.2117 48.0997 54.6349 47.5846 54.9541Z" fill="#C9C9C9"/>
</svg>
