<svg width="27" height="27" viewBox="0 0 27 27" fill="none" xmlns="http://www.w3.org/2000/svg">
<path fill-rule="evenodd" clip-rule="evenodd" d="M12.15 22.95C12.15 23.3081 12.2922 23.6514 12.5454 23.9046C12.7985 24.1578 13.1419 24.3 13.5 24.3C13.858 24.3 14.2014 24.1578 14.4545 23.9046C14.7077 23.6514 14.85 23.3081 14.85 22.95V14.85H22.95C23.308 14.85 23.6514 14.7078 23.9045 14.4546C24.1577 14.2014 24.3 13.8581 24.3 13.5C24.3 13.142 24.1577 12.7986 23.9045 12.5454C23.6514 12.2922 23.308 12.15 22.95 12.15H14.85V4.05001C14.85 3.69197 14.7077 3.34859 14.4545 3.09542C14.2014 2.84224 13.858 2.70001 13.5 2.70001C13.1419 2.70001 12.7985 2.84224 12.5454 3.09542C12.2922 3.34859 12.15 3.69197 12.15 4.05001V12.15H4.04995C3.69191 12.15 3.34853 12.2922 3.09536 12.5454C2.84218 12.7986 2.69995 13.142 2.69995 13.5C2.69995 13.8581 2.84218 14.2014 3.09536 14.4546C3.34853 14.7078 3.69191 14.85 4.04995 14.85H12.15V22.95Z" fill="white"/>
</svg>
