<svg width="37" height="37" viewBox="0 0 37 37" fill="none" xmlns="http://www.w3.org/2000/svg">
<path d="M30.8323 29.6942H16.8494C16.1556 29.6942 15.5852 29.1238 15.5852 28.43C15.5852 27.7363 16.1556 27.1659 16.8494 27.1659H30.8323C31.526 27.1659 32.0965 27.7363 32.0965 28.43C32.0965 29.1392 31.526 29.6942 30.8323 29.6942Z" fill="white"/>
<path d="M30.8323 19.9925H16.8494C16.1556 19.9925 15.5852 19.4221 15.5852 18.7283C15.5852 18.0346 16.1556 17.4642 16.8494 17.4642H30.8323C31.526 17.4642 32.0965 18.0346 32.0965 18.7283C32.0965 19.4221 31.526 19.9925 30.8323 19.9925Z" fill="white"/>
<path d="M30.8323 10.2848H16.8494C16.1556 10.2848 15.5852 9.71443 15.5852 9.02068C15.5852 8.32693 16.1556 7.75651 16.8494 7.75651H30.8323C31.526 7.75651 32.0965 8.32693 32.0965 9.02068C32.0965 9.71443 31.526 10.2848 30.8323 10.2848Z" fill="white"/>
<path d="M7.56918 12.3825C7.23002 12.3825 6.90627 12.2437 6.67502 12.0125L5.2721 10.6096C4.77877 10.1162 4.77877 9.31455 5.2721 8.82122C5.76543 8.32788 6.5671 8.32788 7.06043 8.82122L7.56918 9.32998L10.8683 6.0308C11.3617 5.53748 12.1633 5.53748 12.6567 6.0308C13.15 6.52415 13.15 7.32582 12.6567 7.81915L8.46335 12.0125C8.21668 12.2437 7.90835 12.3825 7.56918 12.3825Z" fill="white"/>
<path d="M7.56918 22.0901C7.24543 22.0901 6.92168 21.9667 6.67502 21.7201L5.2721 20.3173C4.77877 19.824 4.77877 19.0223 5.2721 18.529C5.76543 18.0356 6.5671 18.0356 7.06043 18.529L7.56918 19.0377L10.8683 15.7384C11.3617 15.2452 12.1633 15.2452 12.6567 15.7384C13.15 16.2319 13.15 17.0334 12.6567 17.5267L8.46335 21.7201C8.21668 21.9667 7.89293 22.0901 7.56918 22.0901Z" fill="white"/>
<path d="M7.56918 31.3402C7.24543 31.3402 6.92168 31.2169 6.67502 30.9702L5.2721 29.5673C4.77877 29.074 4.77877 28.2723 5.2721 27.779C5.76543 27.2856 6.5671 27.2856 7.06043 27.779L7.56918 28.2877L10.8683 24.9884C11.3617 24.4952 12.1633 24.4952 12.6567 24.9884C13.15 25.4819 13.15 26.2836 12.6567 26.7769L8.46335 30.9702C8.21668 31.2169 7.89293 31.3402 7.56918 31.3402Z" fill="white"/>
</svg>
